<?xml version="1.0" encoding="UTF-8" standalone="no"?>
<!DOCTYPE svg PUBLIC "-//W3C//DTD SVG 1.1//EN" "http://www.w3.org/Graphics/SVG/1.1/DTD/svg11.dtd">
<svg width="100%" height="100%" viewBox="0 0 300 100" version="1.1" xmlns="http://www.w3.org/2000/svg" xmlns:xlink="http://www.w3.org/1999/xlink" xml:space="preserve" xmlns:serif="http://www.serif.com/" style="fill-rule:evenodd;clip-rule:evenodd;stroke-linejoin:round;stroke-miterlimit:2;">
    <g transform="matrix(0.766492,0,0,0.766492,-53.213531,11.862706)">
        <g transform="matrix(50,0,0,50,153.818067,53.333567)">
            <path d="M0.07,-0L0.07,-0.72L0.192,-0.72L0.43,-0.242L0.668,-0.72L0.79,-0.72L0.79,-0L0.663,-0L0.663,-0.43L0.454,-0L0.406,-0L0.197,-0.43L0.197,-0L0.07,-0Z" style="fill:rgb(251,239,232);fill-rule:nonzero;"/>
        </g>
        <g transform="matrix(50,0,0,50,206.818067,53.333567)">
            <path d="M0.379,0.015C0.307,0.015 0.245,-0.001 0.193,-0.032C0.141,-0.063 0.1,-0.107 0.072,-0.164C0.044,-0.22 0.03,-0.285 0.03,-0.36C0.03,-0.435 0.044,-0.5 0.072,-0.556C0.1,-0.613 0.141,-0.657 0.193,-0.688C0.245,-0.719 0.307,-0.735 0.379,-0.735C0.451,-0.735 0.513,-0.719 0.565,-0.688C0.617,-0.657 0.658,-0.613 0.686,-0.556C0.714,-0.5 0.728,-0.435 0.728,-0.36C0.728,-0.285 0.714,-0.22 0.686,-0.164C0.658,-0.107 0.617,-0.063 0.565,-0.032C0.513,-0.001 0.451,0.015 0.379,0.015ZM0.379,-0.113C0.425,-0.112 0.463,-0.122 0.493,-0.143C0.523,-0.163 0.546,-0.192 0.561,-0.229C0.576,-0.266 0.584,-0.31 0.584,-0.36C0.584,-0.41 0.576,-0.453 0.561,-0.49C0.546,-0.527 0.523,-0.555 0.493,-0.576C0.463,-0.596 0.425,-0.606 0.379,-0.607C0.333,-0.608 0.295,-0.598 0.265,-0.578C0.235,-0.557 0.212,-0.528 0.197,-0.491C0.182,-0.454 0.174,-0.41 0.174,-0.36C0.174,-0.31 0.182,-0.267 0.197,-0.23C0.212,-0.193 0.235,-0.165 0.265,-0.144C0.295,-0.124 0.333,-0.114 0.379,-0.113Z" style="fill:rgb(251,239,232);fill-rule:nonzero;"/>
        </g>
        <g transform="matrix(50,0,0,50,254.718067,53.333567)">
            <path d="M0.07,-0L0.07,-0.72L0.303,-0.72C0.309,-0.72 0.32,-0.72 0.338,-0.72C0.356,-0.719 0.373,-0.718 0.389,-0.716C0.447,-0.709 0.496,-0.689 0.536,-0.655C0.577,-0.622 0.608,-0.58 0.629,-0.528C0.65,-0.477 0.66,-0.421 0.66,-0.36C0.66,-0.299 0.65,-0.243 0.629,-0.192C0.608,-0.14 0.577,-0.098 0.536,-0.065C0.496,-0.031 0.447,-0.011 0.389,-0.004C0.373,-0.002 0.356,-0.001 0.338,-0.001C0.32,-0 0.309,-0 0.303,-0L0.07,-0ZM0.208,-0.128L0.303,-0.128C0.312,-0.128 0.324,-0.128 0.34,-0.129C0.355,-0.129 0.369,-0.131 0.381,-0.133C0.412,-0.139 0.438,-0.154 0.458,-0.177C0.478,-0.2 0.492,-0.228 0.502,-0.26C0.511,-0.292 0.516,-0.326 0.516,-0.36C0.516,-0.396 0.511,-0.43 0.501,-0.463C0.491,-0.495 0.476,-0.522 0.457,-0.544C0.436,-0.567 0.411,-0.581 0.381,-0.587C0.369,-0.59 0.355,-0.591 0.34,-0.592C0.324,-0.592 0.312,-0.592 0.303,-0.592L0.208,-0.592L0.208,-0.128Z" style="fill:rgb(251,239,232);fill-rule:nonzero;"/>
        </g>
        <g transform="matrix(50,0,0,50,300.218067,53.333567)">
            <path d="M0.363,0.015C0.305,0.015 0.254,0.003 0.21,-0.02C0.166,-0.044 0.132,-0.077 0.107,-0.12C0.082,-0.162 0.07,-0.212 0.07,-0.27L0.07,-0.719L0.208,-0.72L0.208,-0.271C0.208,-0.247 0.212,-0.226 0.22,-0.207C0.228,-0.187 0.239,-0.17 0.253,-0.157C0.267,-0.142 0.284,-0.132 0.303,-0.124C0.322,-0.117 0.342,-0.113 0.363,-0.113C0.385,-0.113 0.405,-0.117 0.424,-0.124C0.443,-0.132 0.46,-0.143 0.474,-0.157C0.487,-0.171 0.498,-0.188 0.506,-0.207C0.514,-0.226 0.518,-0.248 0.518,-0.271L0.518,-0.72L0.656,-0.72L0.656,-0.27C0.656,-0.212 0.644,-0.162 0.619,-0.12C0.594,-0.077 0.56,-0.044 0.516,-0.02C0.472,0.003 0.421,0.015 0.363,0.015Z" style="fill:rgb(251,239,232);fill-rule:nonzero;"/>
        </g>
        <g transform="matrix(50,0,0,50,346.518067,53.333567)">
            <path d="M0.08,-0L0.08,-0.72L0.216,-0.72L0.216,-0.127L0.526,-0.127L0.526,-0L0.08,-0Z" style="fill:rgb(251,239,232);fill-rule:nonzero;"/>
        </g>
        <g transform="matrix(50,0,0,50,383.568067,53.333567)">
            <path d="M0.02,-0L0.24,-0.72L0.443,-0.72L0.663,-0L0.523,-0L0.327,-0.635L0.353,-0.635L0.16,-0L0.02,-0ZM0.152,-0.15L0.152,-0.277L0.532,-0.277L0.532,-0.15L0.152,-0.15Z" style="fill:rgb(251,239,232);fill-rule:nonzero;"/>
        </g>
        <g transform="matrix(50,0,0,50,427.718067,53.333567)">
            <path d="M0.01,-0L0.252,-0.364L0.017,-0.72L0.184,-0.72L0.337,-0.48L0.488,-0.72L0.656,-0.72L0.421,-0.364L0.662,-0L0.495,-0L0.337,-0.248L0.178,-0L0.01,-0Z" style="fill:rgb(251,239,232);fill-rule:nonzero;"/>
        </g>
        <g transform="matrix(50,0,0,50,461.318067,53.333567)">
        </g>
    </g>
    <g transform="matrix(1.040136,0,0,2.332816,-14.662696,-39.90862)">
        <rect x="40.31" y="27.641" width="21.151" height="21.151" style="fill:rgb(251,239,232);"/>
    </g>
    <g transform="matrix(1.040136,0,0,1.040136,-41.928067,23.164556)">
        <rect x="40.31" y="27.641" width="21.151" height="21.151" style="fill:rgb(251,239,232);"/>
    </g>
    <g transform="matrix(1.040136,0,0,1.040136,-41.928067,-4.177022)">
        <rect x="40.31" y="27.641" width="21.151" height="21.151" style="fill:rgb(251,239,232);"/>
    </g>
    <g transform="matrix(1.567377,0,0,1.567377,-84.315682,-95.136261)">
        <g transform="matrix(10.846146,0,0,10.846146,245.416407,107.693763)">
        </g>
        <text x="96.451px" y="107.694px" style="font-family:'CenturyGothic', 'Century Gothic', sans-serif;font-size:10.846px;fill:white;">C<tspan x="106.44px 114.714px 119.56px 122.903px 128.682px 137.262px 145.864px 154.137px 158.571px 162.745px 171.347px 179.567px 183.741px 195.086px 203.36px 211.929px 215.272px 218.615px 221.958px 230.538px 234.972px 238.315px " y="107.694px 107.694px 107.694px 107.694px 107.694px 107.694px 107.694px 107.694px 107.694px 107.694px 107.694px 107.694px 107.694px 107.694px 107.694px 107.694px 107.694px 107.694px 107.694px 107.694px 107.694px 107.694px ">otizador de mobiliario</tspan></text>
    </g>
</svg>
